<svg xmlns="http://www.w3.org/2000/svg" width="19.612" height="16.343" viewBox="0 0 19.612 16.343">
  <path id="Icon_material-perm-media" data-name="Icon material-perm-media" d="M1.634,6.269H0v4.086H.008L0,17.709a1.639,1.639,0,0,0,1.634,1.634H16.343V17.709H1.634ZM17.978,4.634H11.44L9.806,3H4.9A1.632,1.632,0,0,0,3.277,4.634L3.269,14.44A1.639,1.639,0,0,0,4.9,16.075H17.978a1.639,1.639,0,0,0,1.634-1.634V6.269A1.639,1.639,0,0,0,17.978,4.634ZM5.72,13.623,9.4,8.72l2.86,3.685L14.3,9.946l2.86,3.677Z" transform="translate(0 -3)" fill="#fff"/>
</svg>
