<svg xmlns="http://www.w3.org/2000/svg" width="26.537" height="15.928" viewBox="0 0 26.537 15.928">
  <path id="Icon_awesome-handshake" data-name="Icon awesome-handshake" d="M18.025,4.5H14.463a1.326,1.326,0,0,0-.9.348L9.491,8.58s-.008.012-.012.017a1.649,1.649,0,0,0-.087,2.322,1.729,1.729,0,0,0,2.326.112s.012,0,.017-.008l3.313-3.035a.663.663,0,0,1,.9.979l-1.082.991,6.037,4.9a2.987,2.987,0,0,1,.328.319V7.154L18.962,4.89A1.317,1.317,0,0,0,18.025,4.5Zm4.532,2.662v9.284a1.325,1.325,0,0,0,1.327,1.327h2.654V7.162Zm1.99,9.284a.663.663,0,1,1,.663-.663A.665.665,0,0,1,24.547,16.446ZM0,17.769H2.654a1.325,1.325,0,0,0,1.327-1.327V7.162H0Zm1.99-2.65a.663.663,0,1,1-.663.663A.665.665,0,0,1,1.99,15.119Zm18.074.771-6.191-5.025-1.244,1.14A2.985,2.985,0,0,1,8.6,7.606L11.987,4.5H8.513a1.324,1.324,0,0,0-.937.39L5.307,7.154v9.284h.759l3.753,3.4a2.653,2.653,0,0,0,3.732-.386l.008-.008.742.643a1.541,1.541,0,0,0,2.169-.224l1.3-1.6L18,18.44a1.325,1.325,0,0,0,1.866-.195l.394-.485A1.329,1.329,0,0,0,20.065,15.89Z" transform="translate(0 -4.5)" fill="#fff"/>
</svg>
