<svg xmlns="http://www.w3.org/2000/svg" width="18.222" height="18.222" viewBox="0 0 18.222 18.222">
  <path id="Icon_material-help" data-name="Icon material-help" d="M12.111,3a9.111,9.111,0,1,0,9.111,9.111A9.114,9.114,0,0,0,12.111,3Zm.911,15.489H11.2V16.667h1.822Zm1.886-7.061-.82.838a3.1,3.1,0,0,0-1.066,2.578H11.2v-.456a3.667,3.667,0,0,1,1.066-2.578l1.13-1.148a1.781,1.781,0,0,0,.538-1.285,1.822,1.822,0,1,0-3.644,0H8.467a3.644,3.644,0,0,1,7.289,0A2.9,2.9,0,0,1,14.908,11.428Z" transform="translate(-3 -3)" fill="#fff"/>
</svg>
