<svg xmlns="http://www.w3.org/2000/svg" width="14.664" height="16.759" viewBox="0 0 14.664 16.759">
  <path id="Icon_awesome-calendar-alt" data-name="Icon awesome-calendar-alt" d="M0,15.188a1.572,1.572,0,0,0,1.571,1.571H13.093a1.572,1.572,0,0,0,1.571-1.571v-8.9H0ZM10.475,8.772a.394.394,0,0,1,.393-.393h1.309a.394.394,0,0,1,.393.393v1.309a.394.394,0,0,1-.393.393H10.867a.394.394,0,0,1-.393-.393Zm0,4.19a.394.394,0,0,1,.393-.393h1.309a.394.394,0,0,1,.393.393v1.309a.394.394,0,0,1-.393.393H10.867a.394.394,0,0,1-.393-.393Zm-4.19-4.19a.394.394,0,0,1,.393-.393H7.987a.394.394,0,0,1,.393.393v1.309a.394.394,0,0,1-.393.393H6.678a.394.394,0,0,1-.393-.393Zm0,4.19a.394.394,0,0,1,.393-.393H7.987a.394.394,0,0,1,.393.393v1.309a.394.394,0,0,1-.393.393H6.678a.394.394,0,0,1-.393-.393Zm-4.19-4.19a.394.394,0,0,1,.393-.393H3.8a.394.394,0,0,1,.393.393v1.309a.394.394,0,0,1-.393.393H2.488a.394.394,0,0,1-.393-.393Zm0,4.19a.394.394,0,0,1,.393-.393H3.8a.394.394,0,0,1,.393.393v1.309a.394.394,0,0,1-.393.393H2.488a.394.394,0,0,1-.393-.393Zm11-10.867H11.522V.524A.525.525,0,0,0,11,0H9.951a.525.525,0,0,0-.524.524V2.095H5.237V.524A.525.525,0,0,0,4.714,0H3.666a.525.525,0,0,0-.524.524V2.095H1.571A1.572,1.572,0,0,0,0,3.666V5.237H14.664V3.666A1.572,1.572,0,0,0,13.093,2.095Z" fill="#fff"/>
</svg>
