<svg xmlns="http://www.w3.org/2000/svg" width="33.36" height="18.968" viewBox="0 0 33.36 18.968">
  <g id="Group_754" data-name="Group 754" transform="translate(-14.021 1.819)">
    <path id="Icon_material-group" data-name="Icon material-group" d="M19.874,14.849A3.675,3.675,0,1,0,16.2,11.175,3.659,3.659,0,0,0,19.874,14.849Zm-9.8,0A3.675,3.675,0,1,0,6.4,11.175,3.659,3.659,0,0,0,10.074,14.849Zm0,2.45C7.22,17.3,1.5,18.732,1.5,21.586v3.062H18.649V21.586C18.649,18.732,12.928,17.3,10.074,17.3Zm9.8,0c-.355,0-.759.024-1.188.061A5.169,5.169,0,0,1,21.1,21.586v3.062h7.349V21.586C28.448,18.732,22.728,17.3,19.874,17.3Z" transform="translate(12.521 -7.5)" fill="#fff"/>
    <path id="Icon_awesome-cog" data-name="Icon awesome-cog" d="M9.615,6.019,8.86,5.583a3.412,3.412,0,0,0,0-1.244L9.615,3.9a.214.214,0,0,0,.1-.248A4.412,4.412,0,0,0,8.743,1.98a.213.213,0,0,0-.262-.041l-.755.436a3.343,3.343,0,0,0-1.077-.622V.883A.212.212,0,0,0,6.483.676a4.453,4.453,0,0,0-1.935,0,.212.212,0,0,0-.167.207v.872A3.449,3.449,0,0,0,3.3,2.376l-.753-.436a.21.21,0,0,0-.262.041,4.386,4.386,0,0,0-.969,1.676.212.212,0,0,0,.1.248l.755.436a3.412,3.412,0,0,0,0,1.244l-.755.436a.214.214,0,0,0-.1.248A4.412,4.412,0,0,0,2.29,7.944a.213.213,0,0,0,.262.041l.755-.436a3.343,3.343,0,0,0,1.077.622v.872a.212.212,0,0,0,.167.207,4.453,4.453,0,0,0,1.935,0,.212.212,0,0,0,.167-.207V8.171a3.449,3.449,0,0,0,1.077-.622l.755.436a.21.21,0,0,0,.262-.041,4.386,4.386,0,0,0,.969-1.676.219.219,0,0,0-.1-.25Zm-4.1.36A1.417,1.417,0,1,1,6.933,4.961,1.419,1.419,0,0,1,5.516,6.378Z" transform="translate(37.659 -2.389)" fill="#fff"/>
  </g>
</svg>
