<svg xmlns="http://www.w3.org/2000/svg" width="17.399" height="16.894" viewBox="0 0 17.399 16.894">
  <path id="Icon_awesome-thumbs-up" data-name="Icon awesome-thumbs-up" d="M3.331,6.953H.769A.757.757,0,0,0,0,7.7v7.449a.757.757,0,0,0,.769.745H3.331a.757.757,0,0,0,.769-.745V7.7a.757.757,0,0,0-.769-.747Zm-1.281,7.7a.745.745,0,1,1,.745-.745A.745.745,0,0,1,2.05,14.653ZM12.3,2.528c0,1.317-.832,2.055-1.066,2.935h3.258a1.886,1.886,0,0,1,1.907,1.8,2.21,2.21,0,0,1-.623,1.527h0a2.526,2.526,0,0,1-.3,2.467,2.4,2.4,0,0,1-.525,2.32,1.6,1.6,0,0,1-.2,1.385c-.654.91-2.274.923-3.644.923h-.091A9.422,9.422,0,0,1,7.187,14.9,5.159,5.159,0,0,0,5.5,14.4a.378.378,0,0,1-.377-.372V7.4a.366.366,0,0,1,.114-.264c1.269-1.215,1.814-2.5,2.854-3.511A3.7,3.7,0,0,0,8.905,1.8C9.048,1.22,9.346,0,9.993,0,10.761,0,12.3.248,12.3,2.528Z" transform="translate(0.5 0.5)" fill="#1476cc" stroke="#1476cc" stroke-width="1"/>
</svg>
