<?xml version="1.0" encoding="utf-8"?>
<!-- Generator: Adobe Illustrator 15.0.0, SVG Export Plug-In . SVG Version: 6.00 Build 0)  -->
<!DOCTYPE svg PUBLIC "-//W3C//DTD SVG 1.1//EN" "http://www.w3.org/Graphics/SVG/1.1/DTD/svg11.dtd">
<svg version="1.1" id="Layer_1" xmlns="http://www.w3.org/2000/svg" xmlns:xlink="http://www.w3.org/1999/xlink" x="0px" y="0px"
	 width="68.821px" height="137.232px" viewBox="0 0 68.821 137.232" enable-background="new 0 0 68.821 137.232"
	 xml:space="preserve">
<g id="Layer_2" transform="translate(0.012 0.005)" opacity="0.3">
	<g id="Layer_2-2" transform="translate(-0.012 -0.005)">
		<path id="Path_28934" fill="#F25FC1" d="M68.622,137.232c-14.683,0.044-28.986-4.659-40.777-13.408
			c-8.936-6.632-16.14-15.32-21-25.33c-0.793-1.518-0.205-3.391,1.313-4.183c1.518-0.793,3.391-0.205,4.183,1.313
			c0.029,0.056,0.058,0.112,0.083,0.17c4.425,9.104,10.982,17.005,19.115,23.03c10.723,7.959,23.731,12.239,37.086,12.2
			c1.712-0.002,3.102,1.385,3.103,3.097c0.002,1.712-1.385,3.102-3.097,3.104c-0.002,0-0.004,0-0.006,0L68.622,137.232z"/>
		<path id="Path_28935" fill="#8F9CEA" d="M32.832,111.395c-1.121,0.504-2.434,0.291-3.337-0.542
			c-6.146-5.573-11.011-12.413-14.258-20.047c-0.674-1.574,0.056-3.396,1.63-4.071c1.574-0.674,3.396,0.056,4.07,1.63
			c2.905,6.818,7.26,12.922,12.761,17.889c1.266,1.145,1.365,3.099,0.222,4.364c-0.004,0.004-0.007,0.008-0.01,0.011
			C33.614,110.963,33.244,111.224,32.832,111.395z"/>
		<path id="Path_28936" fill="#7AC943" d="M68.622,115.262c-8.935,0.011-17.684-2.553-25.2-7.383
			c-1.439-0.928-1.854-2.847-0.926-4.287c0.928-1.439,2.847-1.854,4.287-0.926l0,0c6.514,4.188,14.096,6.409,21.839,6.4
			c1.709-0.093,3.17,1.219,3.262,2.929c0.093,1.709-1.219,3.17-2.928,3.262c-0.111,0.007-0.223,0.007-0.334,0V115.262z"/>
		<path id="Path_28937" opacity="0.8" fill="#51B9E7" enable-background="new    " d="M9.637,100.239
			c-1.189,0.003-2.275-0.676-2.795-1.745C-9.655,64.376,4.63,23.344,38.748,6.847c9.314-4.504,19.526-6.843,29.873-6.843
			c1.709-0.092,3.17,1.22,3.262,2.929c0.093,1.71-1.219,3.171-2.928,3.263c-0.111,0.006-0.223,0.006-0.334,0
			C34.103,6.257,6.17,34.287,6.23,68.804c0.017,9.354,2.132,18.585,6.191,27.013c0.722,1.535,0.082,3.365-1.439,4.116
			C10.561,100.131,10.102,100.235,9.637,100.239z"/>
		<path id="Path_28938" opacity="0.8" fill="#32C3C6" enable-background="new    " d="M91.274,121.217
			c-9.058,3.883-18.958,5.389-28.761,4.375c-12.287-1.302-23.846-6.462-33.018-14.739c-1.315-1.097-1.493-3.051-0.397-4.366
			s3.051-1.493,4.366-0.397c0.066,0.056,0.132,0.115,0.194,0.177c19.989,18.149,50.568,17.897,70.258-0.578
			c1.18-1.241,3.142-1.291,4.383-0.111c1.24,1.18,1.29,3.142,0.11,4.383c-0.082,0.086-0.169,0.168-0.261,0.244
			C103.213,114.836,97.501,118.564,91.274,121.217z"/>
		<path id="Path_28939" opacity="0.8" fill="#7AC943" enable-background="new    " d="M19.307,92.374
			c-1.557,0.681-3.37-0.019-4.068-1.567c-4.395-10.222-5.737-21.496-3.867-32.465c0.206-1.699,1.751-2.909,3.451-2.703
			c1.699,0.206,2.91,1.752,2.703,3.451c-0.011,0.094-0.026,0.187-0.047,0.278c-1.658,9.777-0.459,19.826,3.455,28.938
			C21.607,89.879,20.879,91.699,19.307,92.374z"/>
		<path id="Path_28940" opacity="0.8" fill="#F25FC1" enable-background="new    " d="M45.096,108.376
			c-0.594-0.005-1.175-0.178-1.674-0.5c-21.556-13.86-27.908-42.506-14.233-64.18c0.86-1.48,2.758-1.983,4.238-1.124
			c1.48,0.86,1.983,2.758,1.123,4.238c-0.039,0.067-0.081,0.133-0.125,0.197c-11.881,18.797-6.361,43.658,12.358,55.66
			c1.439,0.927,1.855,2.845,0.93,4.284C47.141,107.842,46.155,108.378,45.096,108.376L45.096,108.376z"/>
		<path id="Path_28941" opacity="0.8" fill="#FFC578" enable-background="new    " d="M109.681,33.213
			c-1.214,0.54-2.637,0.246-3.538-0.73c-19.582-20.798-52.316-21.782-73.114-2.2c-8.219,7.738-13.68,17.953-15.551,29.086
			c-0.36,1.674-2.009,2.738-3.683,2.379c-1.567-0.338-2.618-1.813-2.425-3.405C16.684,26.79,46.57,5.519,78.122,10.833
			c12.456,2.098,23.886,8.21,32.548,17.404c1.169,1.245,1.111,3.201-0.13,4.375c-0.252,0.246-0.543,0.448-0.861,0.6L109.681,33.213z
			"/>
	</g>
</g>
</svg>
