<svg xmlns="http://www.w3.org/2000/svg" width="16.343" height="16.343" viewBox="0 0 16.343 16.343">
  <path id="Icon_material-monetization-on" data-name="Icon material-monetization-on" d="M11.172,3a8.172,8.172,0,1,0,8.172,8.172A8.175,8.175,0,0,0,11.172,3Zm1.152,13.148v1.561H10.142V16.132A3.04,3.04,0,0,1,7.47,13.353h1.6c.082.858.67,1.528,2.165,1.528,1.6,0,1.961-.8,1.961-1.3,0-.678-.36-1.316-2.182-1.749-2.027-.49-3.416-1.324-3.416-3a2.833,2.833,0,0,1,2.541-2.623V4.634h2.182V6.228A2.889,2.889,0,0,1,14.653,9h-1.6c-.041-.907-.523-1.528-1.814-1.528-1.226,0-1.961.556-1.961,1.34,0,.686.531,1.136,2.182,1.561s3.416,1.136,3.416,3.2c-.008,1.5-1.128,2.313-2.55,2.582Z" transform="translate(-3 -3)" fill="#fff"/>
</svg>
