<svg xmlns="http://www.w3.org/2000/svg" width="26.948" height="17.149" viewBox="0 0 26.948 17.149">
  <path id="Icon_material-group" data-name="Icon material-group" d="M19.874,14.849A3.675,3.675,0,1,0,16.2,11.175,3.659,3.659,0,0,0,19.874,14.849Zm-9.8,0A3.675,3.675,0,1,0,6.4,11.175,3.659,3.659,0,0,0,10.074,14.849Zm0,2.45C7.22,17.3,1.5,18.732,1.5,21.586v3.062H18.649V21.586C18.649,18.732,12.928,17.3,10.074,17.3Zm9.8,0c-.355,0-.759.024-1.188.061A5.169,5.169,0,0,1,21.1,21.586v3.062h7.349V21.586C28.448,18.732,22.728,17.3,19.874,17.3Z" transform="translate(-1.5 -7.5)" fill="#fff"/>
</svg>
