<svg xmlns="http://www.w3.org/2000/svg" width="89.499" height="36.722" viewBox="0 0 89.499 36.722">
  <g id="Group_146" data-name="Group 146" transform="translate(22756.636 21058.709)">
    <g id="Group_145" data-name="Group 145" transform="translate(-22756.635 -21057.709)">
      <g id="Group_144" data-name="Group 144">
        <g id="Group_143" data-name="Group 143">
          <g id="Group_142" data-name="Group 142">
            <path id="Path_1" data-name="Path 1" d="M32.637,118.945a17.719,17.719,0,0,1-10.617-3.5,17.987,17.987,0,0,1-5.468-6.589.806.806,0,0,1,1.452-.7,16.368,16.368,0,0,0,4.976,6,16.117,16.117,0,0,0,9.657,3.18.806.806,0,0,1,0,1.613Z" transform="translate(-14.773 -83.223)" fill="#dc67a7"/>
            <path id="Path_2" data-name="Path 2" d="M30.046,106.162a.807.807,0,0,1-.86-.144,14.958,14.958,0,0,1-3.722-5.233.806.806,0,1,1,1.483-.634,13.357,13.357,0,0,0,3.323,4.673.807.807,0,0,1-.224,1.339Z" transform="translate(-21.5 -77.163)" fill="#939acd"/>
            <path id="Path_3" data-name="Path 3" d="M60.864,119.7a12.1,12.1,0,0,1-6.56-1.923.806.806,0,1,1,.872-1.357,10.492,10.492,0,0,0,5.688,1.666.806.806,0,1,1,0,1.613Z" transform="translate(-43 -89.695)" fill="#7fc347"/>
            <path id="Path_4" data-name="Path 4" d="M12.087,34.491a.806.806,0,0,1-.726-.455A17.865,17.865,0,0,1,27.445,8.4a.806.806,0,1,1,0,1.613A16.267,16.267,0,0,0,11.2,26.259a16.1,16.1,0,0,0,1.616,7.073.807.807,0,0,1-.725,1.158Z" transform="translate(-9.582 -8.399)" fill="#53b9e7" opacity="0.8"/>
            <path id="Path_5" data-name="Path 5" d="M56.026,123.374a15.076,15.076,0,0,1-16.073-2.7.806.806,0,0,1,1.084-1.194,13.485,13.485,0,0,0,18.28-.149.806.806,0,1,1,1.1,1.176,15.032,15.032,0,0,1-4.394,2.869Z" transform="translate(-32.266 -91.817)" fill="#39c0c3" opacity="0.8"/>
            <path id="Path_6" data-name="Path 6" d="M23,76.805a.806.806,0,0,1-1.059-.424,15.027,15.027,0,0,1-1.007-8.436.806.806,0,0,1,1.59.269,13.418,13.418,0,0,0,.9,7.533A.806.806,0,0,1,23,76.805Z" transform="translate(-17.976 -52.76)" fill="#7fc347" opacity="0.8"/>
            <path id="Path_7" data-name="Path 7" d="M38.8,70.225a.8.8,0,0,1-.435-.128A12.148,12.148,0,0,1,34.66,53.388a.806.806,0,1,1,1.363.863A10.528,10.528,0,0,0,39.238,68.74a.806.806,0,0,1-.437,1.485Z" transform="translate(-27.063 -42.014)" fill="#dc67a7" opacity="0.8"/>
            <path id="Path_8" data-name="Path 8" d="M47.124,25.011a.807.807,0,0,1-.9-.189,13.472,13.472,0,0,0-23.087,7,.806.806,0,1,1-1.59-.269,15.082,15.082,0,0,1,25.851-7.836.807.807,0,0,1-.27,1.295Z" transform="translate(-18.584 -16.369)" fill="#fec579" opacity="0.8"/>
            <path id="Path_9" data-name="Path 9" d="M110.656,61.031a4.892,4.892,0,1,1-5.125,4.887A4.924,4.924,0,0,1,110.656,61.031Zm0,7.8a2.914,2.914,0,1,0-2.764-2.91,2.779,2.779,0,0,0,2.764,2.91Z" transform="translate(-81.877 -48.057)" fill="#1d3767"/>
            <path id="Path_10" data-name="Path 10" d="M154.421,62a.682.682,0,0,1,.75-.769h.714a.682.682,0,0,1,.75.769v.568a2.988,2.988,0,0,1-.037.421h.037a3.64,3.64,0,0,1,3.313-1.977c2.068,0,3.258,1.08,3.258,3.551V69.8a.68.68,0,0,1-.769.769h-.787a.687.687,0,0,1-.768-.769V65.042c0-1.135-.293-1.9-1.464-1.9a2.792,2.792,0,0,0-2.691,3.057V69.8a.674.674,0,0,1-.75.769h-.805a.674.674,0,0,1-.75-.769Z" transform="translate(-118.717 -48.045)" fill="#1d3767"/>
            <path id="Path_11" data-name="Path 11" d="M202.513,64.806h.384v-.219a1.526,1.526,0,0,0-1.739-1.647,4.214,4.214,0,0,0-1.94.531.689.689,0,0,1-1.025-.311l-.183-.348a.682.682,0,0,1,.293-1.025,6.625,6.625,0,0,1,3.057-.769c2.416,0,3.862,1.354,3.862,3.715V69.8a.68.68,0,0,1-.769.769h-.622a.674.674,0,0,1-.75-.769v-.366a1.829,1.829,0,0,1,.037-.4h-.037a3.4,3.4,0,0,1-2.929,1.757,2.864,2.864,0,0,1-3.093-2.8C197.059,65.264,200.427,64.806,202.513,64.806Zm-1.739,4.21a2.372,2.372,0,0,0,2.141-2.452v-.348h-.384c-1.171,0-3.166.183-3.166,1.574a1.268,1.268,0,0,0,1.41,1.226Z" transform="translate(-150.844 -48.046)" fill="#1d3767"/>
            <path id="Path_12" data-name="Path 12" d="M238.613,62.676a.682.682,0,0,1,.75-.769h.805a.682.682,0,0,1,.75.769v7.8a.674.674,0,0,1-.75.769h-.805a.674.674,0,0,1-.75-.769Z" transform="translate(-182.154 -48.716)" fill="#1d3767"/>
            <path id="Path_13" data-name="Path 13" d="M308.655,61.017c2.654,0,4.136,1.885,4.136,4.447a.809.809,0,0,1-.805.787h-5.692a2.683,2.683,0,0,0,2.8,2.563,3.858,3.858,0,0,0,2.013-.6c.458-.22.787-.165,1.025.256l.219.366a.7.7,0,0,1-.256,1.025,5.9,5.9,0,0,1-3.166.934,4.783,4.783,0,0,1-5.015-4.887A4.6,4.6,0,0,1,308.655,61.017Zm1.83,3.825a1.9,1.9,0,0,0-1.885-2.068,2.274,2.274,0,0,0-2.251,2.068Z" transform="translate(-231.358 -48.046)" fill="#1d3767"/>
            <path id="Path_14" data-name="Path 14" d="M66.5,47.059H65.69a.682.682,0,0,0-.75.769v3.49a5.439,5.439,0,0,0-2.909-.817,4.892,4.892,0,1,0,0,9.774,5.453,5.453,0,0,0,2.92-.82.651.651,0,0,0,.739.6H66.5a.674.674,0,0,0,.75-.769V47.827A.681.681,0,0,0,66.5,47.059ZM62.031,58.3a2.913,2.913,0,1,1,2.782-2.91A2.764,2.764,0,0,1,62.031,58.3Z" transform="translate(-45.24 -37.53)" fill="#1d3767"/>
            <path id="Path_15" data-name="Path 15" d="M264.558,47.059h-.805a.682.682,0,0,0-.75.769v3.49a5.439,5.439,0,0,0-2.909-.817,4.892,4.892,0,1,0,0,9.774,5.453,5.453,0,0,0,2.92-.82.651.651,0,0,0,.739.6h.805a.674.674,0,0,0,.75-.769V47.827A.682.682,0,0,0,264.558,47.059ZM260.094,58.3a2.913,2.913,0,1,1,2.782-2.91A2.764,2.764,0,0,1,260.094,58.3Z" transform="translate(-194.478 -37.53)" fill="#1d3767"/>
            <circle id="Ellipse_1" data-name="Ellipse 1" cx="1.138" cy="1.138" r="1.138" transform="translate(56.459 9.529)" fill="#53b9e7"/>
            <line id="Line_24" data-name="Line 24" y2="4.141" transform="translate(82.288 4.142)" fill="none" stroke="#dc67a7" stroke-linecap="round" stroke-width="2"/>
            <line id="Line_25" data-name="Line 25" y2="4.141" transform="translate(84.359 6.213) rotate(90)" fill="none" stroke="#7fc347" stroke-linecap="round" stroke-width="2"/>
            <line id="Line_26" data-name="Line 26" y2="4.141" transform="translate(82.288 8.281)" fill="none" stroke="#939acd" stroke-linecap="round" stroke-width="2"/>
            <line id="Line_27" data-name="Line 27" y2="4.141" transform="translate(80.217 6.213) rotate(90)" fill="none" stroke="#fed093" stroke-linecap="round" stroke-width="2"/>
            <line id="Line_28" data-name="Line 28" y2="4.141" transform="translate(82.288)" fill="none" stroke="#75c7eb" stroke-linecap="round" stroke-width="2"/>
            <line id="Line_29" data-name="Line 29" y2="4.141" transform="translate(88.498 6.213) rotate(90)" fill="none" stroke="#60cccf" stroke-linecap="round" stroke-width="2"/>
          </g>
        </g>
      </g>
    </g>
  </g>
</svg>
