<svg xmlns="http://www.w3.org/2000/svg" width="101" height="101" viewBox="0 0 101 101">
  <g id="Group_459" data-name="Group 459" transform="translate(-143.746 -190.746)">
    <circle id="Ellipse_17" data-name="Ellipse 17" cx="50.5" cy="50.5" r="50.5" transform="translate(143.746 190.746)" fill="#40c1c5" opacity="0.31"/>
    <circle id="Ellipse_19" data-name="Ellipse 19" cx="40.5" cy="40.5" r="40.5" transform="translate(153.746 200.746)" fill="#40c1c5" opacity="0.31"/>
    <circle id="Ellipse_18" data-name="Ellipse 18" cx="32.5" cy="32.5" r="32.5" transform="translate(161.746 208.746)" fill="#40c1c5"/>
    <path id="Icon_awesome-check" data-name="Icon awesome-check" d="M11.207,28.7.483,17.976a1.65,1.65,0,0,1,0-2.333L2.816,13.31a1.65,1.65,0,0,1,2.333,0l7.224,7.224L27.847,5.06a1.65,1.65,0,0,1,2.333,0l2.333,2.333a1.65,1.65,0,0,1,0,2.333L13.54,28.7A1.65,1.65,0,0,1,11.207,28.7Z" transform="translate(177.72 224.408)" fill="#fff"/>
  </g>
</svg>
