<svg xmlns="http://www.w3.org/2000/svg" width="14.175" height="14.758" viewBox="0 0 14.175 14.758">
  <path id="Icon_awesome-share-square" data-name="Icon awesome-share-square" d="M13.99,5.115l-3.544,3.92c-.374.413-1,.107-1-.5V6.457C5.892,6.485,4.391,7.469,5.4,11.4c.11.432-.316.766-.615.5A5.887,5.887,0,0,1,2.953,7.763c0-4.149,2.894-4.972,6.5-5V.692c0-.61.623-.916,1-.5l3.544,3.92A.776.776,0,0,1,13.99,5.115ZM9.45,10.928v1.985H1.575V3.689H2.828a.276.276,0,0,0,.213-.106A4.929,4.929,0,0,1,4.3,2.5c.274-.167.172-.652-.136-.652H1.181A1.294,1.294,0,0,0,0,3.228V13.374a1.294,1.294,0,0,0,1.181,1.384H9.844a1.294,1.294,0,0,0,1.181-1.384v-2.56a.3.3,0,0,0-.394-.326,1.525,1.525,0,0,1-.841.1A.315.315,0,0,0,9.45,10.928Z" transform="translate(0 0)" fill="#1476cc"/>
</svg>
